<svg xmlns="http://www.w3.org/2000/svg" width="34" height="34" viewBox="0 0 34 34" fill="none">
<g clip-path="url(#clip0_1541_41)">
<path d="M17 34C26.3888 34 34 26.3888 34 17C34 7.61116 26.3888 0 17 0C7.61116 0 0 7.61116 0 17C0 26.3888 7.61116 34 17 34Z" fill="#EE672F"/>
<path d="M17.0081 8.5L9.64062 12.7527V21.25L11.7447 22.4636L11.7311 13.9689L16.9941 10.9271L22.2575 13.9696V22.4609L24.3616 21.25V12.7457L17.0081 8.5ZM18.0533 22.4646L17.0011 23.0729L15.9456 22.4679V13.9696L13.8415 15.1831L13.8448 23.6778L17.0011 25.5L20.1554 23.6778V15.1831L18.0513 13.9696L18.0533 22.4646Z" fill="white"/>
</g>
<defs>
<clipPath id="clip0_1541_41">
<rect width="34" height="34" fill="white"/>
</clipPath>
</defs>
</svg>